<svg width="1440" height="512" viewBox="0 0 1440 512" fill="none" xmlns="http://www.w3.org/2000/svg">
<path d="M720 430.776C994.426 430.776 1245.7 383.841 1440 306V611H0V306C194.304 383.822 445.574 430.776 720 430.776Z" fill="url(#paint0_linear_300_1606)"/>
<path d="M1323.72 346.742C1364.35 334.337 1403.21 320.725 1440 306V311.1C1408.36 325.364 1375.14 338.67 1340.62 351.018C1335.01 349.484 1329.37 348.084 1323.72 346.742Z" fill="#FFA2A4"/>
<path d="M117.715 347.202C112.55 348.679 107.443 350.308 102.374 352.091C66.7584 339.456 32.5632 325.767 0 311.1V306C37.2288 320.916 76.5504 334.663 117.715 347.202Z" fill="#0DFC65"/>
<path d="M1126.44 458.998C1143.67 455.221 1160.54 451.291 1177.07 447.169C1179.22 446.632 1181.57 448.032 1182.3 450.313C1184.72 457.695 1187.19 465.057 1189.73 472.381C1190.51 474.624 1189.32 476.925 1187.1 477.519C1169.89 482.006 1152.33 486.32 1134.41 490.442C1132.07 490.979 1129.69 489.521 1129.09 487.163C1127.14 479.513 1125.23 471.863 1123.41 464.156C1122.82 461.798 1124.2 459.478 1126.44 458.998ZM1414.1 512.375C1422.83 508.713 1431.47 505.013 1440 501.274V468.892C1425.43 475.276 1410.57 481.546 1395.38 487.7C1393.25 488.563 1392.63 490.768 1394 492.627C1398.45 498.686 1402.98 504.725 1407.55 510.727C1408.95 512.548 1411.89 513.296 1414.1 512.375ZM1421.38 467.856C1416.65 462.009 1411.99 456.123 1407.36 450.179C1405.94 448.358 1403.19 447.533 1401.22 448.338C1385.99 454.55 1370.42 460.628 1354.5 466.572C1352.43 467.339 1351.76 469.543 1353.02 471.499C1357.13 477.826 1361.3 484.115 1365.52 490.365C1366.81 492.282 1369.61 493.164 1371.78 492.321C1388.31 485.917 1404.48 479.36 1420.28 472.669C1422.33 471.806 1422.83 469.659 1421.38 467.856ZM1187.79 448.914C1190.26 456.276 1192.78 463.6 1195.37 470.905C1196.16 473.148 1198.62 474.49 1200.84 473.877C1217.86 469.294 1234.54 464.559 1250.86 459.67C1252.99 459.037 1253.91 456.774 1252.95 454.646C1249.8 447.687 1246.71 440.689 1243.68 433.652C1242.74 431.505 1240.36 430.22 1238.3 430.795C1222.64 435.282 1206.62 439.634 1190.28 443.833C1188.15 444.37 1187.04 446.651 1187.79 448.914ZM1359.44 492.704C1355.27 486.415 1351.16 480.089 1347.11 473.723C1345.86 471.768 1343.17 470.809 1341.06 471.576C1324.95 477.443 1308.48 483.175 1291.64 488.755C1289.45 489.483 1288.55 491.746 1289.62 493.816C1293.16 500.546 1296.73 507.256 1300.38 513.928C1301.49 515.98 1304.26 516.996 1306.52 516.21C1323.97 510.209 1341.08 504.016 1357.8 497.689C1359.99 496.865 1360.72 494.621 1359.44 492.704ZM1440 509.308V506.815C1439.62 507.582 1439.62 508.464 1440 509.308ZM1440 395.268C1430.13 399.563 1420.11 403.819 1409.89 408.037C1408.07 408.785 1407.72 410.856 1409.16 412.658C1413.85 418.506 1418.59 424.334 1423.37 430.105C1424.83 431.888 1427.6 432.655 1429.5 431.831C1433.01 430.316 1436.5 428.801 1439.98 427.287V395.268H1440ZM1306.71 414.019C1310.4 420.615 1314.12 427.191 1317.91 433.729C1319.06 435.742 1321.63 436.796 1323.63 436.106C1338.89 430.795 1353.83 425.35 1368.4 419.809C1370.3 419.081 1370.76 416.972 1369.44 415.074C1365.14 408.919 1360.88 402.726 1356.67 396.495C1355.38 394.578 1352.87 393.562 1351.05 394.233C1337.07 399.314 1322.74 404.299 1308.11 409.188C1306.23 409.82 1305.6 411.987 1306.71 414.019ZM1361.34 394.789C1365.58 400.982 1369.9 407.136 1374.24 413.252C1375.58 415.131 1378.19 416.052 1380.08 415.323C1394.49 409.725 1408.57 404.011 1422.32 398.221C1424.1 397.473 1424.33 395.441 1422.85 393.677C1418 387.963 1413.2 382.212 1408.43 376.421C1406.98 374.638 1404.4 373.756 1402.69 374.447C1389.52 379.758 1376.04 384.973 1362.24 390.111C1360.45 390.801 1360.03 392.891 1361.34 394.789ZM1248.88 432.118C1251.97 439.116 1255.1 446.076 1258.31 452.997C1259.29 455.126 1261.8 456.333 1263.9 455.682C1280.02 450.716 1295.83 445.597 1311.28 440.343C1313.3 439.653 1313.99 437.467 1312.84 435.454C1309.09 428.878 1305.43 422.283 1301.8 415.63C1300.68 413.597 1298.23 412.447 1296.31 413.08C1281.48 417.892 1266.34 422.589 1250.86 427.153C1248.82 427.747 1247.94 429.971 1248.88 432.118ZM1293.94 516.095C1290.37 509.384 1286.84 502.636 1283.37 495.868C1282.29 493.797 1279.64 492.685 1277.43 493.394C1260.4 498.878 1243.03 504.208 1225.27 509.346C1222.96 510.017 1221.79 512.337 1222.69 514.523C1225.61 521.636 1228.59 528.73 1231.62 535.804C1232.54 537.971 1235.27 539.141 1237.67 538.431C1256.06 532.89 1274.11 527.138 1291.78 521.233C1294.1 520.447 1295.06 518.146 1293.94 516.095ZM1115.31 580.4C1117.38 588.012 1119.53 595.604 1121.72 603.158C1122.39 605.478 1125.14 606.82 1127.85 606.168C1148.58 601.068 1168.95 595.738 1188.92 590.178C1191.53 589.45 1192.93 587.072 1192.09 584.848C1189.32 577.601 1186.62 570.335 1183.97 563.049C1183.14 560.806 1180.47 559.54 1177.96 560.211C1158.64 565.388 1138.96 570.335 1118.92 575.07C1116.29 575.665 1114.67 578.061 1115.31 580.4ZM1155.24 490.327C1137.48 494.641 1119.38 498.763 1100.91 502.693C1098.51 503.211 1096.97 505.55 1097.49 507.946C1099.2 515.711 1100.95 523.457 1102.77 531.184C1103.33 533.561 1105.82 535.038 1108.32 534.462C1127.48 530.187 1146.28 525.7 1164.71 521.022C1167.11 520.409 1168.45 518.07 1167.7 515.788C1165.3 508.368 1162.96 500.929 1160.68 493.452C1159.99 491.17 1157.55 489.771 1155.24 490.327ZM954.258 611H1031.77C1031.02 606.878 1030.25 602.756 1029.54 598.634C1029.12 596.199 1026.55 594.626 1023.78 595.144C1002.57 599.113 980.965 602.832 959.001 606.264C956.409 606.667 954.412 608.718 954.258 611ZM585.676 547.96C582.527 547.883 579.263 550.107 578.418 552.926C575.653 562.129 572.946 571.312 570.335 580.496C569.529 583.315 571.525 585.654 574.789 585.711C610.732 586.344 645.925 586.229 680.37 585.385C683.5 585.309 686.437 583.008 686.956 580.247C688.645 571.255 690.412 562.263 692.236 553.252C692.793 550.491 690.815 548.286 687.801 548.343C654.489 548.919 620.447 548.823 585.676 547.96ZM583.218 537.204C582.335 540.022 584.197 542.4 587.327 542.477C637.209 543.742 685.593 543.474 732.441 541.844C735.397 541.748 738.143 539.428 738.623 536.686C740.159 527.752 741.772 518.798 743.442 509.845C743.961 507.103 742.079 504.936 739.237 505.013C694.021 506.24 647.308 506.183 599.116 504.63C596.082 504.534 592.876 506.739 591.954 509.576C588.978 518.779 586.06 527.982 583.218 537.204ZM1294.56 455.03C1298.11 461.721 1301.72 468.393 1305.41 475.027C1306.54 477.059 1309.19 478.114 1311.34 477.385C1327.76 471.729 1343.83 465.939 1359.55 460.015C1361.61 459.248 1362.2 457.062 1360.91 455.145C1356.73 448.894 1352.58 442.587 1348.49 436.26C1347.24 434.323 1344.63 433.326 1342.67 434.036C1327.56 439.5 1312.13 444.849 1296.33 450.064C1294.27 450.754 1293.46 452.959 1294.56 455.03ZM1353.5 434.419C1357.63 440.708 1361.82 446.958 1366.06 453.189C1367.37 455.106 1370.07 456.008 1372.09 455.241C1387.62 449.24 1402.81 443.123 1417.65 436.892C1419.59 436.087 1419.95 433.978 1418.49 432.195C1413.75 426.386 1409.07 420.519 1404.42 414.633C1403 412.831 1400.35 411.968 1398.49 412.715C1384.24 418.467 1369.65 424.104 1354.73 429.645C1352.79 430.335 1352.24 432.483 1353.5 434.419ZM1235.56 497.171C1232.54 490.116 1229.57 483.022 1226.67 475.909C1225.77 473.723 1223.29 472.458 1221.08 473.071C1204.22 477.826 1187 482.408 1169.45 486.818C1167.17 487.393 1165.88 489.713 1166.59 491.995C1168.93 499.434 1171.33 506.854 1173.79 514.235C1174.54 516.498 1177.09 517.84 1179.47 517.207C1197.71 512.414 1215.59 507.448 1233.12 502.291C1235.4 501.639 1236.48 499.338 1235.56 497.171ZM1433.47 467.032C1435.66 466.092 1437.83 465.134 1440 464.175V431.965C1431.42 435.723 1422.74 439.442 1413.93 443.123C1411.97 443.929 1411.53 446.057 1412.97 447.878C1417.63 453.764 1422.35 459.612 1427.14 465.421C1428.59 467.185 1431.44 467.914 1433.47 467.032ZM1119.92 493.701C1122.28 493.183 1123.7 490.844 1123.12 488.486C1121.22 480.817 1119.38 473.129 1117.59 465.402C1117.04 463.025 1114.77 461.51 1112.5 461.97C1095.09 465.651 1077.35 469.122 1059.24 472.419C1056.88 472.841 1055.25 475.18 1055.62 477.634C1056.81 485.629 1058.03 493.605 1059.34 501.562C1059.74 503.997 1062.07 505.607 1064.52 505.128C1083.36 501.543 1101.81 497.727 1119.92 493.701ZM1232.27 474.279C1235.23 481.373 1238.25 488.429 1241.32 495.446C1242.26 497.612 1244.87 498.801 1247.12 498.111C1264.43 492.858 1281.41 487.451 1298.03 481.891C1300.2 481.162 1301.05 478.919 1299.93 476.867C1296.33 470.195 1292.75 463.485 1289.24 456.755C1288.17 454.685 1285.61 453.553 1283.54 454.224C1267.56 459.363 1251.24 464.367 1234.56 469.198C1232.41 469.831 1231.37 472.113 1232.27 474.279ZM1224.86 537.798C1221.89 530.705 1218.97 523.572 1216.11 516.421C1215.22 514.216 1212.63 512.97 1210.29 513.641C1192.34 518.683 1174.02 523.553 1155.36 528.212C1152.92 528.826 1151.52 531.165 1152.21 533.465C1154.51 540.943 1156.86 548.401 1159.28 555.821C1160.01 558.102 1162.67 559.425 1165.19 558.754C1184.54 553.731 1203.53 548.478 1222.14 543.033C1224.58 542.323 1225.78 539.984 1224.86 537.798ZM1075.79 575.32C1074.09 567.516 1072.43 559.713 1070.86 551.871C1070.38 549.455 1067.9 547.941 1065.31 548.458C1045.5 552.446 1025.32 556.185 1004.75 559.694C1002.09 560.154 1000.15 562.531 1000.43 565.024C1001.41 573.134 1002.47 581.225 1003.56 589.296C1003.91 591.77 1006.44 593.38 1009.21 592.882C1030.48 589.066 1051.37 584.983 1071.9 580.669C1074.58 580.113 1076.31 577.697 1075.79 575.32ZM927.244 611H946.252C945.311 609.505 943.391 608.661 941.26 608.968C936.613 609.658 931.929 610.329 927.244 611ZM745.573 593.073C744.805 599.055 744.133 605.018 743.423 610.981H824.697C825.023 603.12 825.388 595.24 825.81 587.36C825.945 584.695 823.698 582.759 820.741 583.008C798.105 584.925 775.084 586.555 751.698 587.858C748.684 588.031 745.919 590.37 745.573 593.073ZM1013.28 519.258C993.714 522.518 973.785 525.528 953.509 528.308C950.879 528.672 948.805 531.03 948.921 533.6C949.285 541.94 949.727 550.28 950.207 558.582C950.361 561.132 952.703 562.876 955.449 562.474C976.473 559.425 997.132 556.089 1017.41 552.542C1020.06 552.082 1021.9 549.686 1021.55 547.231C1020.44 539.179 1019.4 531.107 1018.41 522.997C1018.14 520.505 1015.83 518.837 1013.28 519.258ZM909.964 498.494C909.791 507.026 909.676 515.539 909.618 524.032C909.599 526.64 911.788 528.5 914.476 528.193C935.116 525.796 955.372 523.112 975.301 520.217C977.893 519.834 979.852 517.475 979.66 514.945C979.084 506.681 978.565 498.398 978.124 490.097C977.989 487.547 975.858 485.764 973.362 486.109C954.181 488.735 934.655 491.132 914.783 493.279C912.191 493.529 910.021 495.887 909.964 498.494ZM984.498 489.176C985.017 497.459 985.573 505.722 986.226 513.948C986.418 516.478 988.665 518.204 991.237 517.82C1010.96 514.791 1030.33 511.513 1049.34 508.023C1051.81 507.563 1053.5 505.205 1053.12 502.77C1051.87 494.794 1050.68 486.78 1049.57 478.766C1049.22 476.311 1047.01 474.643 1044.63 475.046C1026.34 478.229 1007.71 481.201 988.722 483.942C986.226 484.287 984.345 486.626 984.498 489.176ZM699.589 584.848C723.397 584.081 746.841 582.969 769.919 581.551C772.933 581.359 775.583 579.02 775.89 576.316C776.85 567.516 777.887 558.697 779.001 549.877C779.327 547.174 777.273 545.103 774.373 545.257C752.063 546.465 729.407 547.366 706.386 547.941C703.391 548.018 700.511 550.318 699.954 553.079C698.188 562.071 696.498 571.063 694.866 580.036C694.367 582.797 696.479 584.963 699.589 584.848ZM565.9 596.218C564.537 601.145 563.231 606.073 561.906 611H734.687C735.417 605.191 736.127 599.362 736.914 593.534C737.279 590.811 735.109 588.721 732.037 588.875C680.831 591.29 627.916 592.134 573.292 591.214C569.989 591.156 566.668 593.399 565.9 596.218ZM1039.18 611H1107.67C1108.8 610.732 1109.93 610.482 1111.06 610.214C1113.79 609.562 1115.46 607.146 1114.81 604.826C1112.66 597.234 1110.58 589.622 1108.57 581.972C1107.95 579.633 1105.32 578.215 1102.67 578.809C1082.42 583.41 1061.78 587.782 1040.77 591.885C1038.05 592.422 1036.17 594.818 1036.61 597.253C1037.43 601.855 1038.32 606.418 1039.18 611ZM1440 358.878C1431.22 362.675 1422.32 366.452 1413.23 370.19C1411.54 370.881 1411.35 372.875 1412.83 374.638C1417.63 380.39 1422.49 386.104 1427.38 391.76C1428.88 393.504 1431.55 394.29 1433.32 393.524C1435.56 392.565 1437.79 391.587 1440.02 390.609V358.878H1440ZM1440 538.45V517.974C1438.44 516.114 1436.87 514.273 1435.33 512.414C1433.86 510.631 1430.9 509.94 1428.71 510.88C1339.14 549.34 1238.96 583.621 1127.81 610.981H1245.68C1315.06 589.22 1379.79 564.794 1440 538.45ZM937.113 530.474C916.626 533.101 895.794 535.479 874.597 537.588C871.833 537.856 869.509 540.214 869.394 542.86C869.068 551.449 868.799 560.039 868.607 568.59C868.549 571.217 870.834 573.095 873.695 572.789C895.641 570.43 917.241 567.785 938.457 564.87C941.221 564.487 943.333 562.109 943.199 559.54C942.757 551.2 942.393 542.86 942.085 534.482C942.009 531.932 939.781 530.129 937.113 530.474ZM1401.93 513.027C1397.41 506.988 1392.94 500.929 1388.52 494.813C1387.16 492.934 1384.34 492.11 1382.19 492.953C1365.7 499.472 1348.82 505.857 1331.6 512.088C1329.35 512.893 1328.49 515.175 1329.7 517.169C1333.59 523.668 1337.55 530.129 1341.56 536.552C1342.79 538.527 1345.69 539.428 1348.01 538.546C1365.87 531.874 1383.34 525.029 1400.43 518.031C1402.66 517.13 1403.33 514.887 1401.93 513.027ZM857.471 539.217C836.082 541.173 814.329 542.841 792.229 544.221C789.349 544.394 786.738 546.733 786.431 549.436C785.394 558.256 784.415 567.037 783.513 575.818C783.225 578.521 785.433 580.534 788.428 580.324C811.314 578.732 833.836 576.815 855.973 574.61C858.853 574.323 861.253 571.945 861.33 569.318C861.599 560.729 861.906 552.14 862.309 543.531C862.405 540.904 860.255 538.968 857.471 539.217ZM1089.06 576.988C1109.38 572.539 1129.3 567.842 1148.87 562.934C1151.42 562.301 1152.88 559.924 1152.15 557.623C1149.79 550.165 1147.51 542.668 1145.28 535.153C1144.59 532.852 1142.05 531.452 1139.6 532.047C1120.72 536.591 1101.46 540.924 1081.86 545.046C1079.31 545.583 1077.64 547.96 1078.14 550.357C1079.79 558.16 1081.5 565.963 1083.26 573.728C1083.8 576.106 1086.41 577.563 1089.06 576.988ZM1265.66 562.742C1262.28 555.878 1258.98 548.976 1255.72 542.055C1254.72 539.927 1251.97 538.815 1249.59 539.543C1231.24 545.218 1212.5 550.721 1193.39 555.993C1190.92 556.684 1189.55 559.042 1190.38 561.285C1193.09 568.552 1195.85 575.799 1198.67 583.008C1199.54 585.232 1202.34 586.421 1204.91 585.673C1224.69 579.998 1244.08 574.092 1263.09 568.015C1265.55 567.19 1266.7 564.851 1265.66 562.742ZM1335.61 538.738C1331.65 532.277 1327.76 525.777 1323.9 519.258C1322.71 517.264 1319.92 516.287 1317.66 517.073C1300.22 523.208 1282.44 529.171 1264.28 534.942C1261.92 535.689 1260.81 538.009 1261.82 540.138C1265.14 547.04 1268.5 553.884 1271.92 560.729C1272.98 562.819 1275.82 563.873 1278.28 563.068C1297.07 556.875 1315.51 550.472 1333.55 543.895C1335.92 543.013 1336.82 540.713 1335.61 538.738ZM1033.65 549.628C1053.73 545.928 1073.47 541.997 1092.82 537.856C1095.34 537.319 1096.93 534.942 1096.4 532.564C1094.63 524.818 1092.92 517.034 1091.29 509.231C1090.79 506.834 1088.41 505.301 1085.99 505.799C1067.33 509.615 1048.32 513.219 1028.95 516.593C1026.43 517.034 1024.63 519.393 1024.95 521.885C1025.99 529.957 1027.1 538.009 1028.27 546.043C1028.62 548.497 1031.04 550.107 1033.65 549.628ZM832.05 505.397C831.167 514.139 830.341 522.882 829.593 531.606C829.362 534.29 831.455 536.284 834.258 536.054C855.801 534.347 876.978 532.334 897.81 530.072C900.517 529.784 902.745 527.407 902.764 524.799C902.879 516.287 903.052 507.755 903.301 499.204C903.378 496.577 901.324 494.66 898.713 494.928C878.649 496.941 858.22 498.686 837.445 500.182C834.757 500.373 832.319 502.693 832.05 505.397ZM822.412 532.142C823.237 523.4 824.121 514.638 825.061 505.876C825.349 503.192 823.391 501.14 820.665 501.313C799.698 502.655 778.386 503.709 756.729 504.457C753.906 504.553 751.199 506.854 750.719 509.595C749.106 518.549 747.57 527.464 746.092 536.399C745.631 539.141 747.647 541.269 750.585 541.135C773.029 540.176 795.129 538.91 816.863 537.357C819.685 537.166 822.162 534.807 822.412 532.142ZM925.689 606.207C947.922 603.101 969.791 599.688 991.276 596.026C994.079 595.547 996.076 593.15 995.749 590.658C994.713 582.567 993.733 574.438 992.812 566.289C992.524 563.797 990.124 562.129 987.417 562.55C966.661 565.906 945.522 569.012 924.037 571.849C921.234 572.214 919.026 574.591 919.122 577.179C919.41 585.577 919.775 593.936 920.197 602.296C920.332 604.865 922.789 606.609 925.689 606.207ZM834.162 586.612C833.778 594.761 833.471 602.871 833.202 610.981H889.305C895.218 610.252 901.093 609.504 906.949 608.738C909.868 608.354 912.133 605.958 912.037 603.388C911.673 595.01 911.385 586.612 911.154 578.195C911.077 575.607 908.754 573.805 905.913 574.15C884.217 576.834 862.137 579.212 839.692 581.321C836.773 581.608 834.277 583.966 834.162 586.612Z" fill="#D983D1"/>
<g clip-path="url(#clip0_300_1606)">
<path d="M913.162 461.15C852.259 467.619 788.908 471.031 723.893 471.031C658.879 471.031 595.528 467.619 534.625 461.15C536.733 452.811 538.826 444.072 540.889 434.948C565.588 325.94 558.701 314.308 545.416 258.328C532.116 202.362 549.84 184.187 599.313 146.887C648.771 109.572 643.709 121.115 649.929 79.4377C656.133 37.7753 686.429 18.7246 723.893 18.7246C761.358 18.7246 791.654 37.7753 797.858 79.4377C804.078 121.115 799.016 109.572 848.474 146.887C897.947 184.187 915.671 202.362 902.371 258.328C889.086 314.308 882.199 325.94 906.898 434.948C908.961 444.072 911.054 452.811 913.162 461.15Z" fill="url(#paint1_linear_300_1606)"/>
<path d="M797.873 79.4525C804.092 121.115 799.016 109.587 848.489 146.887C888.893 177.362 908.1 195.063 906.557 231.028C905.161 200.048 885.909 182.778 848.489 154.543C799.031 117.228 804.092 128.771 797.873 87.1084C791.654 45.4461 761.373 18.7246 723.908 18.7246C761.373 18.7246 791.654 37.7753 797.873 79.4525Z" fill="#FFA2A4"/>
<path d="M599.312 146.887C648.77 109.572 643.708 121.115 649.928 79.4528C656.147 37.7905 686.428 18.7397 723.893 18.7397C686.428 18.7397 656.132 45.4612 649.928 87.1236C643.708 128.786 648.785 117.258 599.312 154.558C561.892 182.778 542.654 200.063 541.244 231.043C539.701 195.078 558.908 177.362 599.312 146.887Z" fill="#0DFC65"/>
<path d="M652.629 163.757C647.182 159.083 578.219 188.965 575.488 202.926C572.98 215.731 575.785 244.336 584.483 248.387C593.196 252.437 639.166 232.511 645.772 228.06C652.392 223.609 658.062 168.43 652.629 163.757Z" fill="#2E0066"/>
<path d="M802.029 228.045C808.635 232.496 854.62 252.422 863.318 248.372C872.031 244.321 874.836 215.716 872.313 202.911C869.567 188.964 800.619 159.083 795.172 163.741C789.724 168.43 795.409 223.609 802.029 228.045Z" fill="#2E0066"/>
<path d="M855.138 466.313C826.105 468.435 796.596 469.844 766.672 470.542C766.672 470.542 766.672 470.542 766.657 470.542C752.496 470.868 738.232 471.031 723.893 471.031C711.083 471.031 698.332 470.898 685.656 470.645C655.598 470.007 625.926 468.657 596.744 466.625C597.071 465.675 597.397 464.725 597.739 463.761C598.689 461.001 599.668 458.153 600.663 455.23C600.93 454.443 601.197 453.642 601.464 452.841C602.058 451.061 602.652 449.25 603.26 447.44C603.631 446.313 604.003 445.17 604.374 444.028C604.552 443.449 604.745 442.885 604.923 442.322C605.294 441.179 605.665 440.037 606.021 438.879C606.392 437.722 606.749 436.565 607.12 435.407C607.669 433.672 608.203 431.95 608.723 430.215C609.198 428.671 609.658 427.128 610.118 425.585C610.356 424.74 610.608 423.909 610.845 423.093C611.81 419.784 612.745 416.505 613.606 413.285C613.621 413.226 613.636 413.167 613.651 413.093C614.081 411.55 614.482 410.006 614.868 408.508C614.898 408.389 614.927 408.271 614.957 408.137C615.744 405.11 616.456 402.173 617.094 399.324C617.139 399.101 617.184 398.879 617.243 398.656C617.48 397.632 617.688 396.638 617.896 395.644C618.208 394.161 618.505 392.707 618.757 391.297C618.92 390.362 619.098 389.442 619.247 388.537C619.395 387.632 619.544 386.742 619.662 385.881C619.989 383.715 620.226 381.683 620.375 379.783C623.18 344.783 613.695 282.037 615.981 273.165C618.282 264.292 652.674 246.636 668.735 242.867C684.795 239.099 767.191 239.099 783.252 242.867C799.312 246.636 833.704 264.292 836.005 273.165C838.291 282.037 828.806 344.783 831.612 379.783C831.76 381.683 831.997 383.715 832.324 385.881C832.383 386.312 832.458 386.757 832.517 387.187C832.606 387.736 832.695 388.285 832.799 388.834C833.556 393.27 834.58 398.152 835.827 403.315C835.946 403.834 836.079 404.368 836.213 404.903C837.133 408.641 838.158 412.514 839.256 416.461C839.538 417.47 839.82 418.493 840.117 419.517C840.221 419.888 840.325 420.244 840.429 420.615C840.666 421.446 840.904 422.262 841.141 423.093C842.002 426.016 842.893 428.983 843.798 431.95C844.154 433.093 844.511 434.25 844.867 435.407C845.238 436.565 845.594 437.722 845.965 438.879C846.321 440.037 846.692 441.179 847.064 442.322C847.242 442.885 847.435 443.449 847.613 444.028C847.984 445.17 848.355 446.313 848.726 447.44C849.335 449.25 849.928 451.061 850.522 452.841C850.789 453.642 851.056 454.443 851.324 455.23C852.318 458.153 853.298 461.001 854.248 463.761C854.545 464.622 854.841 465.467 855.138 466.313Z" fill="url(#paint2_linear_300_1606)"/>
<path d="M685.656 470.646C655.598 470.008 625.926 468.657 596.744 466.625C597.071 465.69 597.397 464.726 597.739 463.761C598.689 461.002 599.668 458.153 600.663 455.23C600.93 454.444 601.197 453.642 601.464 452.841C602.058 451.061 602.652 449.251 603.26 447.441C603.631 446.313 604.003 445.17 604.374 444.028C604.552 443.449 604.745 442.886 604.923 442.322C605.294 441.179 605.665 440.037 606.021 438.88C606.392 437.722 606.749 436.565 607.12 435.408C607.669 433.672 608.203 431.951 608.723 430.215C609.198 428.672 609.658 427.129 610.118 425.586C610.356 424.74 610.608 423.909 610.845 423.093C611.81 419.784 612.731 416.505 613.606 413.286C613.621 413.226 613.636 413.167 613.651 413.093C614.081 411.55 614.482 410.007 614.868 408.508C614.898 408.389 614.927 408.271 614.957 408.137C615.729 405.11 616.441 402.173 617.094 399.324C617.139 399.102 617.184 398.879 617.243 398.656C617.48 397.633 617.688 396.639 617.896 395.644C618.193 394.161 618.49 392.707 618.757 391.297C618.92 390.363 619.098 389.443 619.247 388.538C619.395 387.632 619.544 386.742 619.662 385.882L642.937 369.68C635.114 428.39 627.084 437.722 632.947 449.666C635.471 454.815 659.339 463.005 685.656 470.646Z" fill="url(#paint3_linear_300_1606)"/>
<path d="M854.248 463.761C854.545 464.622 854.842 465.468 855.139 466.313C826.105 468.435 796.596 469.844 766.672 470.542C792.871 462.93 816.531 454.785 819.04 449.666C824.903 437.722 816.872 428.39 809.05 369.68L832.324 385.882C832.384 386.312 832.458 386.757 832.517 387.187C832.606 387.736 832.695 388.285 832.799 388.834C833.556 393.271 834.581 398.152 835.827 403.315C835.946 403.849 836.08 404.383 836.213 404.903C837.134 408.642 838.158 412.514 839.256 416.461C839.538 417.485 839.82 418.493 840.117 419.517C840.221 419.888 840.325 420.244 840.429 420.615C840.666 421.431 840.904 422.262 841.141 423.093C842.002 426.016 842.893 428.983 843.798 431.951C844.155 433.093 844.511 434.25 844.867 435.408C845.238 436.565 845.594 437.722 845.965 438.88C846.337 440.022 846.693 441.179 847.064 442.322C847.242 442.886 847.435 443.449 847.613 444.028C847.984 445.17 848.355 446.313 848.726 447.441C849.335 449.251 849.929 451.061 850.522 452.841C850.804 453.642 851.072 454.444 851.324 455.23C852.318 458.153 853.298 461.002 854.248 463.761Z" fill="url(#paint4_linear_300_1606)"/>
<path d="M667.488 120.878C667.488 120.878 657.098 111.975 643.739 117.91C631.894 123.163 633.72 137.851 640.755 146.382C645.105 151.65 650.997 154.113 657.736 154.498C665.262 154.929 673.634 152.866 673.634 152.866C673.634 152.881 667.488 120.878 667.488 120.878Z" fill="#E537A8"/>
<path d="M648.252 152.213C648.312 152.243 648.371 152.273 648.446 152.303L648.252 152.213Z" fill="#FF00E7"/>
<path d="M640.756 146.382C642.329 148.281 644.11 149.81 646.055 151.026C646.01 150.997 645.966 150.952 645.921 150.922C641.75 147.228 638.737 142.079 638.232 136.545C637.713 130.996 639.91 125.136 644.333 121.753C647.079 119.661 650.508 118.592 653.937 118.177C656.89 117.821 659.874 117.925 662.843 118.073C658.553 116.1 651.666 114.394 643.724 117.925C631.909 123.177 633.72 137.851 640.756 146.382Z" fill="white"/>
<path d="M648.252 152.213C648.312 152.243 648.371 152.273 648.446 152.303L648.252 152.213Z" fill="#FF00E7"/>
<path d="M640.756 146.382C642.329 148.281 644.11 149.81 646.055 151.026C646.01 150.997 645.966 150.952 645.921 150.922C641.75 147.228 638.737 142.079 638.232 136.545C637.713 130.996 639.91 125.136 644.333 121.753C647.079 119.661 650.508 118.592 653.937 118.177C656.89 117.821 659.874 117.925 662.843 118.073C658.553 116.1 651.666 114.394 643.724 117.925C631.909 123.177 633.72 137.851 640.756 146.382Z" fill="#FFA2A4"/>
<path d="M795.114 152.213C795.054 152.243 794.994 152.273 794.92 152.303L795.114 152.213Z" fill="#FF00E7"/>
<path d="M777.493 120.878C777.493 120.878 787.883 111.975 801.242 117.91C813.087 123.163 811.262 137.851 804.226 146.382C799.877 151.65 793.984 154.113 787.245 154.498C779.719 154.929 771.348 152.866 771.348 152.866C771.348 152.881 777.493 120.878 777.493 120.878Z" fill="#E537A8"/>
<path d="M804.226 146.382C802.652 148.281 800.871 149.81 798.927 151.026C798.971 150.997 799.016 150.952 799.06 150.922C803.231 147.228 806.244 142.079 806.749 136.545C807.269 130.996 805.072 125.136 800.648 121.753C797.902 119.661 794.474 118.592 791.045 118.177C788.091 117.821 785.107 117.925 782.139 118.073C786.428 116.1 793.316 114.394 801.257 117.925C813.072 123.177 811.261 137.851 804.226 146.382Z" fill="#FFA2A4"/>
<path d="M726.001 185.7C815.685 185.7 843.338 214.128 822.854 239.915C808.025 258.594 754.055 266.621 733.764 282.171C729.177 285.687 722.794 285.687 718.223 282.171C697.947 266.636 643.961 258.594 629.132 239.915C608.663 214.128 636.317 185.7 726.001 185.7Z" fill="url(#paint5_linear_300_1606)"/>
<path d="M726.001 185.7C815.685 185.7 843.338 214.128 822.854 239.915C808.025 258.594 754.055 266.621 733.764 282.171C729.177 285.687 722.794 285.687 718.223 282.171C697.947 266.636 643.961 258.594 629.132 239.915C608.663 214.128 636.317 185.7 726.001 185.7Z" fill="url(#paint6_linear_300_1606)"/>
<path d="M816.888 238.401C835.709 213.549 808.991 189.113 726.996 188.92V185.7C815.878 185.908 843.25 214.217 822.855 239.915C812.554 252.897 783.342 260.746 759.666 269.529C781.531 260.049 807.7 250.553 816.888 238.401Z" fill="#FFA2A4"/>
<path d="M725.007 185.715V188.935C643.012 189.128 616.279 213.564 635.1 238.416C644.289 250.553 670.457 260.064 692.322 269.545C668.647 260.746 639.435 252.912 629.133 239.93C608.739 214.217 636.11 185.923 725.007 185.715Z" fill="#0DFC65"/>
<path d="M726 229.9C743.084 229.9 756.934 224.413 756.934 217.645C756.934 210.876 743.084 205.389 726 205.389C708.916 205.389 695.066 210.876 695.066 217.645C695.066 224.413 708.916 229.9 726 229.9Z" fill="#2E0066"/>
<path d="M726.252 226.013C735.589 226.013 743.144 218.446 743.144 209.128V179.276H709.346V209.128C709.346 218.446 716.916 226.013 726.252 226.013Z" fill="#E537A8"/>
<path d="M731.373 202.155C724.827 202.362 718.266 201.68 711.854 200.33V210.152C711.854 217.006 717.405 222.555 724.263 222.555C731.12 222.555 736.672 217.006 736.672 210.152V201.62C734.92 201.887 733.169 202.11 731.373 202.155Z" fill="#FF96CE"/>
<path d="M668.081 68.399L723.313 60.5947L778.546 68.399C778.546 68.399 780.802 113.889 779.689 138.548C778.546 163.757 771.569 195.434 723.328 195.434C675.072 195.434 668.096 163.757 666.968 138.548C665.825 113.889 668.081 68.399 668.081 68.399Z" fill="#E537A8"/>
<path d="M683.889 82.4793C683.132 93.2955 675.874 102.598 671.524 112.213C666.032 124.364 667.517 137.896 671.035 150.477C676.185 168.935 689.44 186.042 707.831 191.457C722.69 195.834 739.374 191.977 751.783 182.718C764.192 173.46 772.46 159.261 775.963 144.187C779.466 129.112 778.427 113.207 774.612 98.2066C774.612 92.1086 768.111 89.3785 763.865 86.3073C758.032 82.1084 752.198 77.8947 746.365 73.6958C738.572 82.0639 727.647 87.4497 716.263 88.518C704.878 89.5863 693.136 86.3369 683.919 79.5713C683.963 80.5505 683.948 81.5149 683.889 82.4793Z" fill="#FF96CE"/>
<path d="M695.779 150.106C695.779 155.388 691.489 159.676 686.205 159.676C680.921 159.676 676.631 155.388 676.631 150.106C676.631 144.825 680.921 140.537 686.205 140.537C691.489 140.537 695.779 144.825 695.779 150.106Z" fill="#FFAEE1"/>
<path d="M750.834 150.106C750.834 155.388 755.124 159.676 760.408 159.676C765.692 159.676 769.982 155.388 769.982 150.106C769.982 144.825 765.692 140.537 760.408 140.537C755.124 140.537 750.834 144.825 750.834 150.106Z" fill="#FFAEE1"/>
<path d="M740.635 117.673C740.635 120.343 742.802 122.495 745.459 122.495C748.131 122.495 750.283 120.328 750.283 117.673C750.283 115.002 748.116 112.851 745.459 112.851C742.787 112.851 740.635 115.017 740.635 117.673Z" fill="#000626"/>
<path d="M705.976 117.673C705.976 120.343 703.809 122.495 701.152 122.495C698.48 122.495 696.328 120.328 696.328 117.673C696.328 115.002 698.495 112.851 701.152 112.851C703.824 112.851 705.976 115.017 705.976 117.673Z" fill="#000626"/>
<path d="M681.826 98.177L710.4 111.056C710.4 111.07 711.097 91.1146 681.826 98.177Z" fill="#000626"/>
<path d="M766.656 93.3844L736.094 100.328C736.094 100.328 739.389 80.6394 766.656 93.3844Z" fill="#000626"/>
<path d="M723.67 151.679C723.418 151.679 723.18 151.62 722.943 151.486C717.599 148.489 719.707 139.958 720.954 134.854C721.147 134.053 721.325 133.341 721.444 132.747C723.418 123.192 723.833 114.587 722.72 106.441C722.601 105.625 723.18 104.883 723.982 104.764C724.783 104.646 725.54 105.224 725.659 106.026C726.832 114.512 726.401 123.444 724.353 133.341C724.219 133.964 724.041 134.72 723.833 135.551C722.779 139.824 721.013 146.991 724.383 148.89C725.095 149.29 725.347 150.195 724.947 150.908C724.694 151.397 724.19 151.679 723.67 151.679Z" fill="#E537A8"/>
<path d="M743.114 149.765C734.356 158.178 720.79 162.94 710.191 162.006C710.191 162.006 716.945 174.751 733.317 169.602C749.066 164.632 743.114 149.765 743.114 149.765Z" fill="#FDFDFD"/>
<path d="M617.747 270.079C606.377 288.803 552.035 376.905 537.8 387.143C523.58 397.38 431.432 364.561 374.716 377.202C317.999 389.843 289.885 495.572 412.002 508.168C534.119 520.765 577.313 496.358 600.425 471.714C623.536 447.069 644.02 379.19 645.148 352.884C646.291 326.593 617.747 270.079 617.747 270.079Z" fill="url(#paint7_linear_300_1606)"/>
<path d="M834.255 270.079C845.625 288.803 899.967 376.905 914.201 387.143C928.421 397.38 1020.57 364.561 1077.29 377.202C1134 389.843 1162.12 495.572 1040 508.168C917.883 520.765 874.688 496.358 851.577 471.714C828.466 447.069 807.982 379.19 806.854 352.884C805.711 326.593 834.255 270.079 834.255 270.079Z" fill="url(#paint8_linear_300_1606)"/>
<path d="M1049.13 388.018C1031.45 389.783 1013.53 394.962 1000.06 406.52C987.453 417.336 979.512 433.671 979.749 450.274C979.972 466.877 988.67 483.331 1002.76 492.129C1020.57 503.257 1043.49 501.284 1063.93 496.521C1078.86 493.034 1093.7 488.153 1106.39 479.562C1119.08 470.972 1129.52 458.271 1132.89 443.315C1144.24 392.988 1084.77 384.457 1049.13 388.018Z" fill="url(#paint9_linear_300_1606)"/>
<path d="M1124.25 474.058C1120.36 467.248 1115.72 460.986 1109.2 456.52C1096.14 447.574 1077.88 447.396 1062.67 447.307C1046.69 447.203 1030.25 447.618 1015 452.989C1001.81 457.633 992.04 466.446 984.381 478.005C980.863 483.301 977.82 488.88 974.733 494.429C964.164 486.877 956.416 474.933 956.668 462.055C957.633 413.048 1028.96 402.039 1065.59 397.84C1084.65 395.659 1103.34 398.908 1118.89 414.25C1132.64 427.796 1138.01 450.304 1128.87 467.292C1127.55 469.725 1125.99 471.966 1124.25 474.058Z" fill="#E537A8"/>
<path d="M1094.25 400.526C1139.24 408.835 1158.12 422.707 1170.21 433.449C1182.3 444.191 1216.5 488.747 1195.87 505.157C1175.24 521.566 1136.66 465.378 1132.18 458.628C1127.69 451.877 1069.26 433.449 1069.26 433.449L1094.25 400.526Z" fill="#E537A8"/>
<path d="M1063.88 407.128C1105.22 422.796 1132.83 443.286 1134.88 450.66C1136.93 458.034 1151.71 506.195 1129.8 514.459C1107.91 522.708 1099.22 500.868 1093.08 474.073L1088.48 456.506L1040.59 426.49L1063.88 407.128Z" fill="#E537A8"/>
<path d="M1088.49 456.506C1095.53 478.524 1106.3 543.035 1082.02 550.884C1057.74 558.733 1050.42 501.106 1043.31 478.806C1036.2 456.506 1018.68 454.444 1006.96 478.969C995.231 503.495 968.839 550.706 939.464 545.884C910.089 541.062 936.689 505.201 946.678 483.643C956.668 462.085 955.332 432.366 983.683 420.215C1012.05 408.033 1076.96 420.378 1088.49 456.506Z" fill="#E537A8"/>
<path d="M1074.48 397.187C1116.62 393.434 1170 405.793 1190.75 412.692C1211.51 419.591 1222.81 431.832 1216.01 447.233C1209.2 462.633 1142.06 448.227 1142.06 448.227L1074.48 397.187Z" fill="#E537A8"/>
<path d="M1091.07 528.05C1095.96 514.059 1094.61 498.45 1092.29 484.103C1090.29 471.64 1088.27 457.767 1077.18 449.903C1068.96 444.072 1056.15 444.191 1049.85 452.055C1041.33 462.722 1047.26 476.209 1050.51 487.604C1054.63 502.041 1056.56 518.109 1062.26 531.952C1064.34 537.011 1067.74 541.299 1073.63 541.611C1078.04 541.848 1082.36 539.771 1085.52 536.7C1088.27 534.029 1090.01 531.136 1091.07 528.05Z" fill="#FE50B3"/>
<path d="M1129.42 510.809C1141.37 505.408 1136.3 473.924 1133.39 456.194C1130.48 438.464 1101.18 427.128 1094.39 432.425C1087.59 437.722 1091.09 450.689 1095.97 464.072C1100.86 477.455 1107.11 520.898 1129.42 510.809Z" fill="#FE50B3"/>
<path d="M1134.88 430.215C1147.92 425.125 1181.01 444.607 1191.67 467.218C1202.33 489.815 1200.28 500.127 1187.66 503.791C1175.04 507.471 1148.83 472.678 1142.06 460.274C1135.29 447.885 1126.95 433.316 1134.88 430.215Z" fill="#FE50B3"/>
<path d="M1159.06 410.659C1191.85 416.09 1212.64 430.214 1211.17 442.158C1209.7 454.102 1175.45 439.918 1168.8 431.906C1162.16 423.894 1159.06 410.659 1159.06 410.659Z" fill="#FE50B3"/>
<path d="M978.072 453.182C1001.73 461.565 958.642 548.08 940.533 539.252C922.424 530.424 945.832 500.349 951.576 482.723C957.321 465.096 964.386 448.33 978.072 453.182Z" fill="#FE50B3"/>
<path d="M1190.27 472.678C1193.18 478.227 1195.17 484.666 1193.63 490.735C1192.07 496.803 1185.94 501.981 1179.82 500.631C1175.58 499.696 1172.5 496.106 1169.92 492.604C1164.15 484.785 1142 455.927 1156.15 447.989C1168.16 441.253 1185.7 463.954 1190.27 472.678Z" fill="#FF96CE"/>
<path d="M1202.92 430.763C1205.09 432.737 1206.99 435.541 1206.35 438.39C1205.65 441.55 1202.1 443.301 1198.87 443.434C1194.39 443.627 1190.13 441.624 1186.28 439.309C1181.1 436.194 1176.02 427.662 1184.17 424.309C1189.67 422.084 1199.11 427.291 1202.92 430.763Z" fill="#FF96CE"/>
<path d="M1126.31 455.512C1128.78 458.405 1129.67 462.307 1130.31 466.061C1132.06 476.58 1132.43 487.322 1131.36 497.931C1131.03 501.165 1130.41 504.726 1127.84 506.729C1125.35 508.688 1121.64 508.495 1118.86 506.982C1116.07 505.468 1114.05 502.857 1112.36 500.171C1106.67 491.15 1103.85 480.349 1104.42 469.696C1104.61 466.15 1105.18 462.545 1106.85 459.414C1110.4 452.782 1120.69 448.924 1126.31 455.512Z" fill="#FF96CE"/>
<path d="M1079.35 469.666C1082.76 473.242 1084.31 478.153 1085.48 482.96C1088.05 493.554 1089.25 504.489 1089.04 515.394C1088.92 521.729 1087.44 529.311 1081.54 531.626C1078.46 532.842 1074.84 532.16 1072.02 530.379C1069.19 528.614 1067.12 525.884 1065.5 522.976C1059.29 511.818 1059.65 498.331 1060.16 485.586C1060.56 475.616 1066.75 456.476 1079.35 469.666Z" fill="#FF96CE"/>
<path d="M969.076 495.171C968.275 506.269 963.703 517.055 956.266 525.335C954.352 527.471 952.17 529.489 949.468 530.409C946.752 531.329 943.412 530.898 941.571 528.717C939.79 526.61 939.805 523.554 940.176 520.839C941.542 510.631 946.455 501.299 951.279 492.203C957.216 481.016 970.219 479.429 969.076 495.171Z" fill="#FF96CE"/>
<path d="M402.875 388.018C420.554 389.783 438.47 394.962 451.948 406.52C464.55 417.336 472.491 433.671 472.254 450.274C472.031 466.877 463.333 483.331 449.246 492.129C431.434 503.257 408.516 501.284 388.077 496.521C373.144 493.034 358.301 488.153 345.61 479.562C332.918 470.972 322.483 458.271 319.114 443.315C307.759 392.988 367.222 384.457 402.875 388.018Z" fill="url(#paint10_linear_300_1606)"/>
<path d="M473.93 569.312C427.381 586.256 376.023 587.591 327.395 578.169C312.626 575.306 297.694 571.329 285.255 562.858C272.816 554.386 263.109 540.691 262.856 525.646C262.767 520.171 264.83 513.658 270.13 512.293C275.265 510.987 279.956 515.216 283.8 518.866C304.358 538.362 331.656 549.994 359.695 554.148C387.734 558.317 416.501 555.32 443.946 548.302C454.93 545.483 474.182 537.605 484.469 545.884C495.839 555.024 483.103 565.973 473.93 569.312Z" fill="#0DFC65"/>
<path d="M416.915 444.903C493.819 468.702 495.823 529.326 490.465 545.632C485.121 561.938 398.168 589.49 321.591 567.531C244.999 545.572 252.836 472.396 316.025 456.343C379.213 440.304 412.062 443.405 416.915 444.903Z" fill="url(#paint11_linear_300_1606)"/>
<path d="M421.785 486.773C415.492 489.993 413.814 497.99 412.285 504.889C409.792 516.077 405.843 526.937 400.559 537.115C397.353 543.288 393.449 549.43 387.482 552.991C381.515 556.567 373.039 556.774 368.201 551.789C363.614 547.071 363.658 539.756 362.679 533.243C361.714 526.744 357.899 519.252 351.324 519.177C346.099 519.118 342.21 523.851 337.386 525.869C329.355 529.237 319.796 524.267 315.076 516.952C310.356 509.637 309.287 500.646 308.352 491.996C299.579 500.483 288.476 506.536 276.602 509.355C273.084 510.186 269.21 510.706 265.989 509.044C258.641 505.26 260.333 494.296 263.851 486.803C279.095 454.355 308.782 429.013 343.219 419.013C377.671 409.013 416.308 414.532 446.574 433.776C467.399 447.01 495.364 472.975 493.687 499.993C492.158 524.548 470.962 540.587 453.847 516.7C447.078 507.263 439.493 477.708 421.785 486.773Z" fill="#2E0066"/>
<path d="M335.93 525.557C336.019 512.545 338.825 499.578 344.153 487.708C346.632 482.174 350.388 476.328 356.355 475.2C368.601 472.901 372.519 488.02 372.059 497.011C371.361 510.305 365.958 522.916 360.051 534.652C358.388 537.946 356.622 541.27 353.995 543.851C351.353 546.433 347.657 548.184 344.005 547.649C335.292 546.373 335.886 532.071 335.93 525.557Z" fill="url(#paint12_linear_300_1606)"/>
<path d="M327.752 474.058C331.641 467.248 336.287 460.986 342.803 456.52C355.866 447.574 374.123 447.396 389.338 447.307C405.309 447.203 421.756 447.618 437 452.989C450.196 457.633 459.962 466.446 467.622 478.005C471.14 483.301 474.182 488.88 477.27 494.429C487.838 486.877 495.587 474.933 495.334 462.055C494.37 413.048 423.047 402.039 386.413 397.84C367.354 395.659 348.667 398.908 333.125 414.25C319.38 427.796 314.007 450.304 323.151 467.292C324.457 469.725 326.015 471.966 327.752 474.058Z" fill="#E537A8"/>
<path d="M357.75 400.526C312.76 408.835 293.879 422.707 281.797 433.449C269.699 444.191 235.5 488.747 256.132 505.157C276.765 521.566 315.343 465.378 319.825 458.628C324.308 451.877 382.747 433.449 382.747 433.449L357.75 400.526Z" fill="#E537A8"/>
<path d="M388.12 407.128C346.781 422.796 319.173 443.286 317.124 450.66C315.076 458.034 300.292 506.195 322.201 514.459C344.095 522.708 352.778 500.868 358.923 474.073L363.525 456.506L411.41 426.49L388.12 407.128Z" fill="#E537A8"/>
<path d="M363.51 456.506C356.474 478.524 345.698 543.035 369.982 550.884C394.266 558.733 401.584 501.106 408.694 478.806C415.804 456.506 433.319 454.444 445.045 478.969C456.771 503.495 483.163 550.706 512.538 545.884C541.913 541.062 515.314 505.201 505.324 483.643C495.335 462.085 496.671 432.366 468.32 420.215C439.954 408.033 375.044 420.378 363.51 456.506Z" fill="#E537A8"/>
<path d="M377.507 397.187C335.367 393.434 281.99 405.793 261.239 412.692C240.473 419.591 229.177 431.832 235.975 447.233C242.788 462.633 309.925 448.227 309.925 448.227L377.507 397.187Z" fill="#E537A8"/>
<path d="M360.928 528.05C356.044 514.059 357.395 498.45 359.71 484.103C361.714 471.64 363.733 457.767 374.821 449.903C383.044 444.072 395.854 444.191 402.148 452.055C410.668 462.722 404.745 476.209 401.495 487.604C397.368 502.041 395.439 518.109 389.739 531.952C387.661 537.011 384.261 541.299 378.369 541.611C373.96 541.848 369.641 539.771 366.479 536.7C363.733 534.029 361.996 531.136 360.928 528.05Z" fill="#FE50B3"/>
<path d="M322.586 510.809C310.637 505.408 315.698 473.924 318.608 456.194C321.517 438.464 350.818 427.128 357.616 432.425C364.415 437.722 360.911 450.689 356.028 464.072C351.144 477.455 344.895 520.898 322.586 510.809Z" fill="#FE50B3"/>
<path d="M317.125 430.215C304.078 425.125 270.992 444.607 260.334 467.218C249.677 489.815 251.725 500.127 264.342 503.791C276.959 507.471 303.172 472.678 309.941 460.274C316.709 447.885 325.051 433.316 317.125 430.215Z" fill="#FE50B3"/>
<path d="M292.929 410.659C260.139 416.09 239.344 430.214 240.813 442.158C242.283 454.102 276.541 439.918 283.191 431.906C289.841 423.894 292.929 410.659 292.929 410.659Z" fill="#FE50B3"/>
<path d="M473.93 453.182C450.27 461.565 493.36 548.08 511.469 539.252C529.578 530.424 506.17 500.349 500.426 482.723C494.681 465.096 487.616 448.33 473.93 453.182Z" fill="#FE50B3"/>
<path d="M261.728 472.678C258.818 478.227 256.829 484.666 258.373 490.735C259.932 496.803 266.062 501.981 272.177 500.631C276.423 499.696 279.495 496.106 282.078 492.604C287.852 484.785 309.998 455.927 295.853 447.989C283.844 441.253 266.299 463.954 261.728 472.678Z" fill="#FF96CE"/>
<path d="M249.081 430.763C246.914 432.737 245.014 435.541 245.653 438.39C246.35 441.55 249.898 443.301 253.134 443.434C257.616 443.627 261.877 441.624 265.721 439.309C270.901 436.194 275.978 427.662 267.829 424.309C262.337 422.084 252.896 427.291 249.081 430.763Z" fill="#FF96CE"/>
<path d="M325.69 455.512C323.211 458.405 322.335 462.307 321.697 466.061C319.945 476.58 319.574 487.322 320.643 497.931C320.97 501.165 321.593 504.726 324.161 506.729C326.655 508.688 330.365 508.495 333.141 506.982C335.932 505.468 337.95 502.857 339.643 500.171C345.328 491.15 348.148 480.349 347.584 469.696C347.391 466.15 346.827 462.545 345.149 459.414C341.602 452.782 331.315 448.924 325.69 455.512Z" fill="#FF96CE"/>
<path d="M372.653 469.666C369.239 473.242 367.696 478.153 366.523 482.96C363.955 493.554 362.753 504.489 362.96 515.394C363.079 521.729 364.564 529.311 370.456 531.626C373.544 532.842 377.166 532.16 379.986 530.379C382.806 528.614 384.884 525.884 386.502 522.976C392.707 511.818 392.35 498.331 391.846 485.586C391.43 475.616 385.255 456.476 372.653 469.666Z" fill="#FF96CE"/>
<path d="M482.911 495.171C483.712 506.269 488.284 517.055 495.721 525.335C497.636 527.471 499.817 529.489 502.519 530.409C505.235 531.329 508.575 530.898 510.416 528.717C512.197 526.61 512.182 523.554 511.811 520.839C510.445 510.631 505.532 501.299 500.708 492.203C494.771 481.016 481.783 479.429 482.911 495.171Z" fill="#FF96CE"/>
<path d="M888.135 414.532C890.065 396.238 907.461 387.306 907.461 387.306C907.461 387.306 850.285 309.708 840.236 289.441C830.187 269.188 826.09 263.031 806.838 251.992C818.475 257.66 829.875 264.722 834.239 270.093V270.079C834.254 270.093 834.269 270.123 834.269 270.138C834.981 271.028 835.501 271.874 835.797 272.66C849.884 295.732 900.515 377.321 914.171 387.157C928.391 397.395 1020.54 364.576 1077.26 377.217C1086.56 379.294 1095.08 383.879 1102.31 390.14C1056.33 366.089 986.829 384.338 942.789 390.867C892.93 398.226 888.135 414.532 888.135 414.532Z" fill="#FFA2A4"/>
<path d="M563.867 414.532C561.937 396.238 544.541 387.306 544.541 387.306C544.541 387.306 601.718 309.708 611.767 289.441C621.816 269.188 625.913 263.031 645.165 251.992C633.527 257.66 622.128 264.722 617.764 270.093V270.079C617.749 270.093 617.734 270.123 617.734 270.138C617.021 271.028 616.502 271.874 616.205 272.66C602.119 295.732 551.488 377.321 537.832 387.157C523.612 397.395 431.464 364.576 374.747 377.217C365.44 379.294 356.92 383.879 349.691 390.14C395.676 366.089 465.173 384.338 509.214 390.867C559.073 398.226 563.867 414.532 563.867 414.532Z" fill="#0DFC65"/>
<path d="M821.518 277.156C811.617 294.456 806.941 314.708 808.277 334.59C802.414 314.96 808.203 292.72 821.518 277.156Z" fill="#2E0066"/>
<path d="M630.484 277.156C640.385 294.456 645.061 314.708 643.725 334.59C649.573 314.96 643.799 292.72 630.484 277.156Z" fill="#2E0066"/>
<path d="M696.923 139.186C684.721 139.186 674.791 129.26 674.791 117.064C674.791 104.868 684.721 94.9424 696.923 94.9424C709.124 94.9424 719.054 104.868 719.054 117.064C719.054 129.275 709.124 139.186 696.923 139.186ZM696.923 100.937C688.017 100.937 680.773 108.177 680.773 117.079C680.773 125.981 688.017 133.222 696.923 133.222C705.829 133.222 713.072 125.981 713.072 117.079C713.072 108.177 705.829 100.937 696.923 100.937Z" fill="#FEFEFE"/>
<path d="M750.686 139.186C738.485 139.186 728.555 129.26 728.555 117.064C728.555 104.868 738.485 94.9424 750.686 94.9424C762.888 94.9424 772.818 104.883 772.818 117.079C772.818 129.275 762.888 139.186 750.686 139.186ZM750.686 100.937C741.78 100.937 734.537 108.177 734.537 117.079C734.537 125.981 741.78 133.222 750.686 133.222C759.592 133.222 766.836 125.981 766.836 117.079C766.836 108.177 759.592 100.937 750.686 100.937Z" fill="#FEFEFE"/>
<path d="M716.041 120.996C715.448 120.996 714.854 120.818 714.349 120.462C712.998 119.527 712.657 117.658 713.592 116.307L714.023 115.684C716.294 112.405 719.886 110.477 723.879 110.402C723.968 110.402 724.042 110.402 724.131 110.402C728.02 110.402 731.582 112.183 733.943 115.299C734.937 116.619 734.67 118.489 733.349 119.483C732.028 120.477 730.157 120.21 729.163 118.889C727.931 117.257 726.061 116.307 723.997 116.382C721.949 116.426 720.108 117.405 718.936 119.097L718.505 119.72C717.912 120.536 716.991 120.996 716.041 120.996Z" fill="#FEFEFE"/>
<path d="M666.628 118.578C666.628 118.578 656.772 91.8562 651.205 71.7372C645.639 51.633 641.29 34.8672 670.398 32.4784C672.847 17.864 685.538 5.35636 700.322 4.22874C712.093 3.33852 723.716 8.66501 735.472 7.59675C743.16 6.89941 750.315 3.50173 757.781 1.46906C765.233 -0.563614 773.857 -1.00872 780.061 3.57592C785.999 7.96767 788.388 15.95 794.222 20.4604C798.823 24.0065 804.85 24.8967 810.49 26.2914C816.131 27.6861 822.113 30.1342 824.755 35.3123C829.237 44.1107 821.875 56.3067 827.887 64.1406C830.603 67.6867 835.427 69.1852 837.995 72.85C840.474 76.3663 840.296 81.129 839.153 85.2834C838.025 89.4378 836.036 93.3399 835.16 97.5536C834.284 101.767 834.715 106.619 837.787 109.646C840.86 112.658 846.99 112.405 848.697 108.459C846.575 112.287 843.25 115.744 839.331 117.732C835.427 119.705 830.469 119.943 826.773 117.598C824.265 116.011 822.499 113.4 819.856 112.049C815.864 110.017 811.069 111.367 806.75 112.554C802.43 113.741 797.383 114.616 793.821 111.901C789.888 108.904 789.769 103.132 789.947 98.1768C790.125 93.2212 789.828 87.4199 785.761 84.6157C782.243 82.1973 777.523 83.1765 773.248 83.221C763.258 83.3546 753.417 77.3456 748.979 68.3989C740.919 77.3753 729.876 82.227 717.838 82.9985C705.8 83.7552 693.806 81.3961 681.976 79.0518C676.617 92.598 672.001 105.017 666.628 118.578Z" fill="url(#paint13_linear_300_1606)"/>
<path d="M768.424 77.0046L780.492 118.073L789.457 72.2271L768.424 77.0046Z" fill="url(#paint14_linear_300_1606)"/>
<path d="M1017.84 406.371C1034.98 401.713 1052.5 399.339 1065.59 397.84C1068.6 397.499 1071.59 397.306 1074.57 397.261L1074.48 397.202C1116.62 393.448 1170 405.808 1190.75 412.707C1209.51 418.938 1220.54 429.532 1217.48 442.87C1216.58 436.505 1212.94 430.303 1208.01 426.001C1200.32 419.28 1190.18 416.208 1180.33 413.538C1153.24 406.193 1125.5 400.555 1097.38 399.324C1084.19 398.745 1070.65 398.671 1057.65 400.57C1044.38 402.499 1031.11 404.428 1017.84 406.371Z" fill="#FFA2A4"/>
<path d="M434.164 406.371C417.02 401.713 399.505 399.339 386.413 397.84C383.399 397.499 380.416 397.306 377.432 397.261L377.521 397.202C335.381 393.448 282.004 405.808 261.253 412.707C242.491 418.938 231.462 429.532 234.52 442.87C235.425 436.505 239.062 430.303 243.99 426.001C251.679 419.28 261.817 416.208 271.673 413.538C298.762 406.193 326.505 400.555 354.618 399.324C367.814 398.745 381.351 398.671 394.354 400.57C407.624 402.499 420.894 404.428 434.164 406.371Z" fill="#FFA2A4"/>
<path d="M653.787 44.0363C650.566 48.0423 649.72 53.5765 650.433 58.6656C651.16 63.7696 653.283 68.5471 655.494 73.1911C654.025 66.9002 654.737 60.1197 657.483 54.2739C657.483 58.6805 657.468 63.0871 657.468 67.5085C657.988 63.1464 659.784 58.9327 662.575 55.5499C660.511 68.5916 661.031 82.0339 664.089 94.8828C667.948 84.3782 671.243 73.6659 673.959 62.82C671.57 65.7726 669.195 68.7103 666.805 71.6629C667.785 63.7547 669.417 55.9208 671.659 48.2797C667.547 47.6714 663.287 48.1462 659.413 49.6299C663.896 47.3895 666.716 43.428 671.866 41.6031C665.988 38.1164 658.359 38.3538 653.787 44.0363Z" fill="url(#paint15_linear_300_1606)"/>
<path d="M675.355 37.4041C677.775 32.775 682.347 29.318 687.468 28.2645C685.137 31.8699 682.822 35.4753 680.491 39.0807C687.631 34.8077 695.632 31.9886 703.885 30.8313C696.463 36.232 689.026 41.6327 681.605 47.0334C692.099 37.3151 707.788 33.5465 721.548 37.4338C727.322 39.0659 733.631 41.8849 738.96 39.1252C742.581 37.2409 744.719 33.1162 748.489 31.5435C753.521 29.4515 759.102 32.686 763.436 35.9946C767.771 39.3033 772.758 43.0274 778.116 41.9591C780.833 41.4101 783.148 39.6594 785.776 38.7395C792.678 36.3062 801.183 40.965 802.875 48.0868C803.617 40.0748 797.992 31.9293 790.229 29.8076C786.933 28.9025 783.045 28.7987 780.818 26.217C778.013 22.9677 779.527 17.8935 778.22 13.7984C776.632 8.79837 770.843 6.08319 765.618 6.49863C760.393 6.91407 755.703 9.80728 751.547 12.9972C747.391 16.1872 743.487 19.8223 738.796 22.1517C728.317 27.3743 715.848 25.3565 704.33 23.2348C713.444 19.4513 723.864 18.8579 733.349 21.6027C723.448 16.1427 711.588 14.3326 700.515 16.5878C705.22 14.8667 709.926 13.1308 714.631 11.4097C704.953 6.02384 697.903 7.53722 689.59 13.9765C680.862 20.7422 680.016 28.4871 675.355 37.4041Z" fill="url(#paint16_linear_300_1606)"/>
<path d="M707.565 49.0068C715.269 49.4964 722.809 52.538 730.439 51.1136C735.768 50.1195 740.562 47.1373 745.891 46.1136C755.955 44.1699 766.954 50.4311 770.427 60.0752C764.193 55.2383 757.009 50.1344 749.186 51.2175C742.863 52.078 737.875 56.7962 732.472 60.1939C727.069 63.5916 719.425 65.5501 714.705 61.2622C722.869 65.4017 732.576 66.3958 741.408 63.9773C730.083 69.3928 716.501 69.8973 704.819 65.3275C711.796 70.194 719.959 73.3246 728.405 74.3781C714.556 78.0131 699.075 74.838 687.779 66.0248C693.82 64.5411 699.847 63.0574 705.888 61.5737C699.683 61.2028 693.494 60.817 687.289 60.4461C695.171 58.3393 703.068 56.2472 710.949 54.1404C702.578 56.3659 693.894 53.2502 685.434 54.5261C691.03 53.6804 696.284 50.0157 702.118 49.1848C703.943 48.9178 705.754 48.8881 707.565 49.0068Z" fill="url(#paint17_linear_300_1606)"/>
<path d="M819.751 55.2535C818.965 59.0666 817.302 62.8797 818.92 66.218C821.072 70.6543 827.722 70.0163 831.671 72.9689C835.322 75.6989 835.916 81.0402 834.862 85.4765C833.808 89.9127 831.478 93.9484 830.364 98.3699C829.251 102.791 829.667 108.103 833.199 110.996C828.361 110.21 824.293 105.981 823.685 101.115C823.314 98.1176 824.13 95.1205 824.724 92.1531C825.318 89.1857 825.659 85.9958 824.412 83.2361C823.165 80.4764 819.796 78.4882 817.035 79.7197C820.004 80.6099 821.295 84.245 820.894 87.3163C820.508 90.3875 818.935 93.162 818.029 96.1146C817.124 99.0672 817.02 102.643 819.172 104.868C814.972 104.779 812.894 99.5865 812.968 95.3876C813.042 91.1887 814.081 86.6041 811.855 83.0284C810.385 80.6841 807.817 79.3191 805.65 77.598C799.609 72.776 796.67 64.3782 798.406 56.841C798.896 62.9835 802.281 68.8442 807.342 72.3457C804.255 68.1765 803.052 62.6571 804.136 57.568C805.249 62.9539 808.307 67.9094 812.612 71.3368C809.376 65.9955 807.758 59.6897 808.025 53.4582C809.747 56.114 811.469 58.755 813.191 61.4108C811.795 59.2743 813.384 55.3276 813.473 53.1318C813.651 48.5916 813.087 44.3037 810.816 40.2681C811.335 41.188 815.224 42.4639 816.278 43.5322C818.044 45.283 819.202 47.4789 819.84 49.8676C820.301 51.6332 820.122 53.4433 819.751 55.2535Z" fill="url(#paint18_linear_300_1606)"/>
<path d="M750.745 17.3003C739.909 28.161 722.661 32.1076 708.174 27.0482C715.625 31.7516 723.715 33.6507 732.161 31.1136C740.592 28.5913 747.093 25.3271 750.745 17.3003Z" fill="#F8E8D8"/>
<path d="M659.888 42.3896C655.049 43.8734 651.798 49.3185 652.793 54.2889C654.158 49.645 656.281 45.6093 659.888 42.3896Z" fill="#F8E8D8"/>
<path d="M830.528 76.5446C832.146 79.7049 831.196 83.5329 829.979 86.8564C828.762 90.1799 827.233 93.6517 827.827 97.1384C824.947 91.5449 828.525 84.1264 825.378 78.6812C823.908 76.1292 821.236 74.5713 818.951 72.7315C816.65 70.8917 814.498 68.3101 814.765 65.3872C814.126 72.2864 827.886 71.3814 830.528 76.5446Z" fill="#F8E8D8"/>
<path d="M737.607 50.0903C729.784 55.0459 719.424 55.6987 711.037 51.7669C714.911 55.2091 719.008 57.0934 724.188 56.8115C729.369 56.5444 734.133 53.9331 737.607 50.0903Z" fill="#F8E8D8"/>
</g>
<defs>
<linearGradient id="paint0_linear_300_1606" x1="724.55" y1="651.584" x2="718.51" y2="394.533" gradientUnits="userSpaceOnUse">
<stop stop-color="#AD009C"/>
<stop offset="0.0751" stop-color="#8E008F"/>
<stop offset="0.1658" stop-color="#700082"/>
<stop offset="0.2663" stop-color="#570078"/>
<stop offset="0.3788" stop-color="#440070"/>
<stop offset="0.5099" stop-color="#37006A"/>
<stop offset="0.6768" stop-color="#2F0067"/>
<stop offset="1" stop-color="#2D0066"/>
</linearGradient>
<linearGradient id="paint1_linear_300_1606" x1="545.365" y1="239.446" x2="942.975" y2="252.623" gradientUnits="userSpaceOnUse">
<stop stop-color="#DC2670"/>
<stop offset="0.0293" stop-color="#CB2272"/>
<stop offset="0.1107" stop-color="#A11978"/>
<stop offset="0.1968" stop-color="#7D117D"/>
<stop offset="0.2868" stop-color="#600B81"/>
<stop offset="0.382" stop-color="#490684"/>
<stop offset="0.4848" stop-color="#390386"/>
<stop offset="0.6007" stop-color="#300188"/>
<stop offset="0.7574" stop-color="#2D0088"/>
<stop offset="0.7833" stop-color="#2D0688"/>
<stop offset="0.8162" stop-color="#2D1588"/>
<stop offset="0.8529" stop-color="#2D2F88"/>
<stop offset="0.8923" stop-color="#2D5488"/>
<stop offset="0.934" stop-color="#2D8288"/>
<stop offset="0.9768" stop-color="#2DBA88"/>
<stop offset="1" stop-color="#2DDC88"/>
</linearGradient>
<linearGradient id="paint2_linear_300_1606" x1="731.977" y1="235.128" x2="718.104" y2="767.892" gradientUnits="userSpaceOnUse">
<stop stop-color="#FF0098"/>
<stop offset="0.1439" stop-color="#B70087"/>
<stop offset="0.2006" stop-color="#92007E"/>
<stop offset="0.2527" stop-color="#770078"/>
<stop offset="0.3075" stop-color="#620073"/>
<stop offset="0.3432" stop-color="#5A0071"/>
<stop offset="0.453" stop-color="#48006D"/>
<stop offset="0.5964" stop-color="#390069"/>
<stop offset="0.7621" stop-color="#300067"/>
<stop offset="1" stop-color="#2D0066"/>
</linearGradient>
<linearGradient id="paint3_linear_300_1606" x1="645.715" y1="536.73" x2="632.755" y2="340.812" gradientUnits="userSpaceOnUse">
<stop stop-color="#AD009C"/>
<stop offset="0.0751" stop-color="#8E008F"/>
<stop offset="0.1658" stop-color="#700082"/>
<stop offset="0.2663" stop-color="#570078"/>
<stop offset="0.3788" stop-color="#440070"/>
<stop offset="0.5099" stop-color="#37006A"/>
<stop offset="0.6768" stop-color="#2F0067"/>
<stop offset="1" stop-color="#2D0066"/>
</linearGradient>
<linearGradient id="paint4_linear_300_1606" x1="814.842" y1="527.796" x2="803.223" y2="352.151" gradientUnits="userSpaceOnUse">
<stop stop-color="#AD009C"/>
<stop offset="0.0751" stop-color="#8E008F"/>
<stop offset="0.1658" stop-color="#700082"/>
<stop offset="0.2663" stop-color="#570078"/>
<stop offset="0.3788" stop-color="#440070"/>
<stop offset="0.5099" stop-color="#37006A"/>
<stop offset="0.6768" stop-color="#2F0067"/>
<stop offset="1" stop-color="#2D0066"/>
</linearGradient>
<linearGradient id="paint5_linear_300_1606" x1="731.501" y1="126.383" x2="716.476" y2="392.854" gradientUnits="userSpaceOnUse">
<stop stop-color="#FF0098"/>
<stop offset="0.0173" stop-color="#F50096"/>
<stop offset="0.1083" stop-color="#C7008B"/>
<stop offset="0.205" stop-color="#9D0081"/>
<stop offset="0.306" stop-color="#7B0078"/>
<stop offset="0.4124" stop-color="#5E0072"/>
<stop offset="0.5261" stop-color="#48006D"/>
<stop offset="0.6507" stop-color="#390069"/>
<stop offset="0.7941" stop-color="#300067"/>
<stop offset="1" stop-color="#2D0066"/>
</linearGradient>
<linearGradient id="paint6_linear_300_1606" x1="725.247" y1="279.914" x2="727.612" y2="103.631" gradientUnits="userSpaceOnUse">
<stop stop-color="#FF0098"/>
<stop offset="0.0173" stop-color="#F50096"/>
<stop offset="0.1083" stop-color="#C7008B"/>
<stop offset="0.205" stop-color="#9D0081"/>
<stop offset="0.306" stop-color="#7B0078"/>
<stop offset="0.4124" stop-color="#5E0072"/>
<stop offset="0.5261" stop-color="#48006D"/>
<stop offset="0.6507" stop-color="#390069"/>
<stop offset="0.7941" stop-color="#300067"/>
<stop offset="1" stop-color="#2D0066"/>
</linearGradient>
<linearGradient id="paint7_linear_300_1606" x1="490.088" y1="228.027" x2="473.886" y2="850.263" gradientUnits="userSpaceOnUse">
<stop stop-color="#FF0098"/>
<stop offset="0.1439" stop-color="#B70087"/>
<stop offset="0.2006" stop-color="#92007E"/>
<stop offset="0.2527" stop-color="#770078"/>
<stop offset="0.3075" stop-color="#620073"/>
<stop offset="0.3432" stop-color="#5A0071"/>
<stop offset="0.3819" stop-color="#48006D"/>
<stop offset="0.4324" stop-color="#390069"/>
<stop offset="0.4908" stop-color="#300067"/>
<stop offset="0.5747" stop-color="#2D0066"/>
</linearGradient>
<linearGradient id="paint8_linear_300_1606" x1="970.332" y1="240.532" x2="954.13" y2="862.768" gradientUnits="userSpaceOnUse">
<stop stop-color="#FF0098"/>
<stop offset="0.1439" stop-color="#B70087"/>
<stop offset="0.2006" stop-color="#92007E"/>
<stop offset="0.2527" stop-color="#770078"/>
<stop offset="0.3075" stop-color="#620073"/>
<stop offset="0.3432" stop-color="#5A0071"/>
<stop offset="0.3819" stop-color="#48006D"/>
<stop offset="0.4324" stop-color="#390069"/>
<stop offset="0.4908" stop-color="#300067"/>
<stop offset="0.5747" stop-color="#2D0066"/>
</linearGradient>
<linearGradient id="paint9_linear_300_1606" x1="1134.32" y1="443.812" x2="979.735" y2="443.812" gradientUnits="userSpaceOnUse">
<stop stop-color="#AD009C"/>
<stop offset="0.0487" stop-color="#9D0095"/>
<stop offset="0.168" stop-color="#7B0087"/>
<stop offset="0.2955" stop-color="#5E007B"/>
<stop offset="0.4318" stop-color="#480072"/>
<stop offset="0.5811" stop-color="#39006B"/>
<stop offset="0.7531" stop-color="#300067"/>
<stop offset="1" stop-color="#2D0066"/>
</linearGradient>
<linearGradient id="paint10_linear_300_1606" x1="317.685" y1="443.812" x2="472.265" y2="443.812" gradientUnits="userSpaceOnUse">
<stop stop-color="#AD009C"/>
<stop offset="0.0487" stop-color="#9D0095"/>
<stop offset="0.168" stop-color="#7B0087"/>
<stop offset="0.2955" stop-color="#5E007B"/>
<stop offset="0.4318" stop-color="#480072"/>
<stop offset="0.5811" stop-color="#39006B"/>
<stop offset="0.7531" stop-color="#300067"/>
<stop offset="1" stop-color="#2D0066"/>
</linearGradient>
<linearGradient id="paint11_linear_300_1606" x1="384.532" y1="588.418" x2="363.63" y2="315.675" gradientUnits="userSpaceOnUse">
<stop stop-color="#AD009C"/>
<stop offset="0.0487" stop-color="#9D0095"/>
<stop offset="0.168" stop-color="#7B0087"/>
<stop offset="0.2955" stop-color="#5E007B"/>
<stop offset="0.4318" stop-color="#480072"/>
<stop offset="0.5811" stop-color="#39006B"/>
<stop offset="0.7531" stop-color="#300067"/>
<stop offset="1" stop-color="#2D0066"/>
</linearGradient>
<linearGradient id="paint12_linear_300_1606" x1="372.08" y1="511.366" x2="335.903" y2="511.366" gradientUnits="userSpaceOnUse">
<stop stop-color="#AD009C"/>
<stop offset="0.0487" stop-color="#9D0095"/>
<stop offset="0.168" stop-color="#7B0087"/>
<stop offset="0.2955" stop-color="#5E007B"/>
<stop offset="0.4318" stop-color="#480072"/>
<stop offset="0.5811" stop-color="#39006B"/>
<stop offset="0.7531" stop-color="#300067"/>
<stop offset="1" stop-color="#2D0066"/>
</linearGradient>
<linearGradient id="paint13_linear_300_1606" x1="686.214" y1="165.336" x2="804.834" y2="-5.09607" gradientUnits="userSpaceOnUse">
<stop stop-color="#000626"/>
<stop offset="0.0928" stop-color="#0A0535"/>
<stop offset="0.2675" stop-color="#1A034B"/>
<stop offset="0.4599" stop-color="#25015A"/>
<stop offset="0.6817" stop-color="#2B0063"/>
<stop offset="1" stop-color="#2D0066"/>
</linearGradient>
<linearGradient id="paint14_linear_300_1606" x1="713.835" y1="184.561" x2="832.456" y2="14.1277" gradientUnits="userSpaceOnUse">
<stop stop-color="#000626"/>
<stop offset="0.0928" stop-color="#0A0535"/>
<stop offset="0.2675" stop-color="#1A034B"/>
<stop offset="0.4599" stop-color="#25015A"/>
<stop offset="0.6817" stop-color="#2B0063"/>
<stop offset="1" stop-color="#2D0066"/>
</linearGradient>
<linearGradient id="paint15_linear_300_1606" x1="556.136" y1="-53.5548" x2="710.45" y2="114.618" gradientUnits="userSpaceOnUse">
<stop stop-color="#FF0098"/>
<stop offset="0.0173" stop-color="#F50096"/>
<stop offset="0.1083" stop-color="#C7008B"/>
<stop offset="0.205" stop-color="#9D0081"/>
<stop offset="0.306" stop-color="#7B0078"/>
<stop offset="0.4124" stop-color="#5E0072"/>
<stop offset="0.5261" stop-color="#48006D"/>
<stop offset="0.6507" stop-color="#390069"/>
<stop offset="0.7941" stop-color="#300067"/>
<stop offset="1" stop-color="#2D0066"/>
</linearGradient>
<linearGradient id="paint16_linear_300_1606" x1="490.598" y1="-230.773" x2="843.145" y2="153.435" gradientUnits="userSpaceOnUse">
<stop stop-color="#FF0098"/>
<stop offset="0.0173" stop-color="#F50096"/>
<stop offset="0.1083" stop-color="#C7008B"/>
<stop offset="0.205" stop-color="#9D0081"/>
<stop offset="0.306" stop-color="#7B0078"/>
<stop offset="0.4124" stop-color="#5E0072"/>
<stop offset="0.5261" stop-color="#48006D"/>
<stop offset="0.6507" stop-color="#390069"/>
<stop offset="0.7941" stop-color="#300067"/>
<stop offset="1" stop-color="#2D0066"/>
</linearGradient>
<linearGradient id="paint17_linear_300_1606" x1="576.736" y1="-104.012" x2="789.862" y2="128.255" gradientUnits="userSpaceOnUse">
<stop stop-color="#FF0098"/>
<stop offset="0.0173" stop-color="#F50096"/>
<stop offset="0.1083" stop-color="#C7008B"/>
<stop offset="0.205" stop-color="#9D0081"/>
<stop offset="0.306" stop-color="#7B0078"/>
<stop offset="0.4124" stop-color="#5E0072"/>
<stop offset="0.5261" stop-color="#48006D"/>
<stop offset="0.6507" stop-color="#390069"/>
<stop offset="0.7941" stop-color="#300067"/>
<stop offset="1" stop-color="#2D0066"/>
</linearGradient>
<linearGradient id="paint18_linear_300_1606" x1="656.468" y1="-100.253" x2="889.311" y2="153.501" gradientUnits="userSpaceOnUse">
<stop stop-color="#FF0098"/>
<stop offset="0.0173" stop-color="#F50096"/>
<stop offset="0.1083" stop-color="#C7008B"/>
<stop offset="0.205" stop-color="#9D0081"/>
<stop offset="0.306" stop-color="#7B0078"/>
<stop offset="0.4124" stop-color="#5E0072"/>
<stop offset="0.5261" stop-color="#48006D"/>
<stop offset="0.6507" stop-color="#390069"/>
<stop offset="0.7941" stop-color="#300067"/>
<stop offset="1" stop-color="#2D0066"/>
</linearGradient>
<clipPath id="clip0_300_1606">
<rect width="984" height="584" fill="white" transform="translate(234)"/>
</clipPath>
</defs>
</svg>
